<svg xmlns="http://www.w3.org/2000/svg" viewBox="0 0 64 64" role="img" aria-label="PiBarTicker">
	<defs>
		<linearGradient id="bg" x1="0" y1="0" x2="1" y2="1">
			<stop offset="0%" stop-color="#071022"/>
			<stop offset="100%" stop-color="#0a1b34"/>
		</linearGradient>
		<linearGradient id="accent" x1="0" y1="0" x2="1" y2="0">
			<stop offset="0%" stop-color="#1dd3a7"/>
			<stop offset="100%" stop-color="#17b5d6"/>
		</linearGradient>
	</defs>
	<rect width="64" height="64" rx="12" fill="url(#bg)"/>
	<rect x="7" y="45" width="50" height="11" rx="5.5" fill="url(#accent)"/>
	<path d="M13 37h7l4-7 5 11 6-10 4 6h12" fill="none" stroke="#9fe7ff" stroke-width="3.2" stroke-linecap="round" stroke-linejoin="round"/>
	<path d="M12 35V15h11c4 0 8 3 8 7s-4 7-8 7h-11" fill="none" stroke="#e8f3ff" stroke-width="3" stroke-linecap="round" stroke-linejoin="round"/>
	<path d="M35 35V15h9c3 0 6 2 6 5 0 2-1 4-3 5 3 1 4 3 4 5 0 3-3 5-6 5h-10" fill="none" stroke="#e8f3ff" stroke-width="3" stroke-linecap="round" stroke-linejoin="round"/>
</svg>